<svg
  viewBox="-410 -30 540 470"
  version="1.1"
  xmlns="http://www.w3.org/2000/svg">
  <defs>
    <path id="raute"
      fill="#cfe7f5"
      stroke="black"
      stroke-width="1px"
      d="m 0 -40 L 80 0 L 0 40 L -80 0 z" />
    <path id="lozenge"
      fill="#cfe7f5"
      stroke="black"
      stroke-width="1px"
      d="M -60,-20
         h 120
         a 20,20 0 0 1 20,20
         v 0
         a 20,20 0 0 1 -20,20
         h -120
         a 20,20 0 0 1 -20,-20
         v 0
         a 20,20 0 0 1 20,-20
         Z"/>
    <path id="lozenge_small"
      fill="#cfe7f5"
      stroke="black"
      stroke-width="1px"
      d="M -40,-20
         h 80
         a 20,20 0 0 1 20,20
         v 0
         a 20,20 0 0 1 -20,20
         h -80
         a 20,20 0 0 1 -20,-20
         v 0
         a 20,20 0 0 1 20,-20
         Z"/>
    <marker
      id="triangle"
      viewBox="0 0 10 10"
      refX="1"
      refY="5"
      markerUnits="strokeWidth"
      markerWidth="10"
      markerHeight="10"
      orient="auto">
      <path d="M 0 0 L 10 5 L 0 10 z" fill="black" />
    </marker>
  </defs>

  <g id="start" transform="translate(-160, 0)">
    <use href="#lozenge" />
    <text
      font-size="12" fill="black"
      text-anchor="middle" dominant-baseline="middle"
      transform="translate(0, -6)">
      <tspan x="0" dy="0em">Choosing a string class</tspan>
      <tspan x="0" dy="1.2em">for creating an API</tspan>
    </text>
  </g>

  <g id="param_or_return" transform="translate(-160, 100)">
   <use href="#raute" />
   <text
      font-size="12" fill="black"
      text-anchor="middle" dominant-baseline="middle"
      transform="translate(0, -6)">
      <tspan x="0" dy="0em">For a parameter</tspan>
      <tspan x="0" dy="1.2em">or the return value?</tspan>
  </text>
  </g>

  <g id="make_copy" transform="translate(-320, 200)">
    <use href="#raute" />
    <text
      font-size="12" fill="black"
      text-anchor="middle" dominant-baseline="middle"
      transform="translate(0, -6)">
      <tspan x="0" dy="0em">Will you make</tspan>
      <tspan x="0" dy="1.2em">a persistent copy?</tspan>
    </text>
  </g>

  <g id="ref_or_perm" transform="translate(40, 200)">
    <use href="#raute" />
     <text
       font-size="12" fill="black"
       text-anchor="middle" dominant-baseline="middle"
       transform="translate(0, -12)">
       <tspan x="0" dy="0em">Reference to</tspan>
       <tspan x="0" dy="1.2em">permanent or</tspan>
       <tspan x="0" dy="1.2em">temporary?</tspan>
  </text>
  </g>

  <g id="make_copy" transform="translate(-80, 300)">
    <use href="#raute" />
    <text
      font-size="12" fill="black"
      text-anchor="middle" dominant-baseline="middle"
      transform="translate(0, -6)">
      <tspan x="0" dy="0em">Reference to full</tspan>
      <tspan x="0" dy="1.2em">or part?</tspan>
    </text>
  </g>

  <g id="const_ref" transform="translate(-320, 300)">
    <use href="#lozenge" />
    <text
      font-size="12" fill="black"
      text-anchor="middle" dominant-baseline="middle" >
      <tspan x="0" dy="0em">const QString&amp;ยน</tspan>
    </text>
  </g>

  <g id="anystringview" transform="translate(-200, 380)">
    <use href="#lozenge" />
    <text
      font-size="12" fill="black"
      text-anchor="middle" dominant-baseline="middle"
      transform="translate(0, -8)" >
      <tspan x="0" dy="0em">Q*StringView</tspan>
      <tspan font-size="8" x="0" dy="1.4em">Parameters: preferably QAnyStringView</tspan>
      <tspan font-size="8" x="0" dy="1.2em">Generally: any of L1, UTF-8, or UTF-16</tspan>
    </text>
  </g>


  <g id="anystringview" transform="translate(40, 380)">
    <use href="#lozenge" />
    <text
      font-size="12" fill="black"
      text-anchor="middle" dominant-baseline="middle" >
      <tspan x="0" dy="0em">QString</tspan>
    </text>
  </g>

  <g transform="translate(-160, 20)">
    <path
      fill="none" stroke="black" marker-end="url(#triangle)"
      d="M 0 0 l 0 30" />
  </g>

  <g transform="translate(-240, 100)">
    <path
      fill="none" stroke="black" marker-end="url(#triangle)"
      d="M 0 0 l -80 0 l 0 50" />
    <text x="-40" y="-5"
      font-size="12" fill="black"
      text-anchor="middle" dominant-baseline="auto">
      parameter
    </text>
  </g>

  <g transform="translate(-80, 100)">
    <path
      fill="none" stroke="black" marker-end="url(#triangle)"
      d="M 0 0 l 120 0 l 0 50" />
    <text x="60" y="-5"
      font-size="12" fill="black"
      text-anchor="middle" dominant-baseline="auto">
      return value
    </text>
  </g>

  <g transform="translate(-320, 240)">
    <path
      fill="none" stroke="black" marker-end="url(#triangle)"
      d="M 0 0 l 0 30" />
    <text x="5" y="15"
      font-size="12" fill="black"
      text-anchor="left" dominant-baseline="middle">
      yes
    </text>
  </g>

  <g transform="translate(-240, 200)">
    <path
      fill="none" stroke="black" marker-end="url(#triangle)"
      d="M 0 0 l 40 0 l 0 150" />
    <text x="20" y="-5"
      font-size="12" fill="black"
      text-anchor="middle" dominant-baseline="auto">
      no
    </text>
  </g>

  <g transform="translate(-40, 200)">
    <path
      fill="none" stroke="black" marker-end="url(#triangle)"
      d="M 0 0 l -40 0 l 0 50" />
    <text x="-20" y="-5"
      font-size="12" fill="black"
      text-anchor="middle" dominant-baseline="auto">
      reference
    </text>
  </g>

  <g transform="translate(-160, 300)">
    <path
      fill="none" stroke="black" marker-end="url(#triangle)"
      d="M 0 0 l -70 0" />
    <text x="-20" y="-5"
      font-size="12" fill="black"
      text-anchor="middle" dominant-baseline="auto">
      full
    </text>
  </g>

  <g transform="translate(-80, 340)">
    <path
      fill="none" stroke="black" marker-end="url(#triangle)"
      d="M 0 0 l 0 40 l -30 0" />
    <text x="5" y="20"
      font-size="12" fill="black"
      text-anchor="left" dominant-baseline="auto">
      part
    </text>
  </g>

  <g transform="translate(40, 240)">
    <path
      fill="none" stroke="black" marker-end="url(#triangle)"
      d="M 0 0 l 0 110" />
    <text x="5" y="55"
      font-size="12" fill="black"
      text-anchor="left" dominant-baseline="auto">
      temporary
    </text>
  </g>

  <g transform="translate(-400, 415)">
    <text x="5" y="5"
      font-size="9" fill="black"
      text-anchor="left" dominant-baseline="middle">
      <tspan x="0" dy="0em">1:</tspan>
      <tspan x="1em" dy="0em">If you return a QString in full, you can choose
        to return a value instead of a reference, allowing you to return a
        temporary in the future without</tspan>
      <tspan x="1em" dy="1.2em">breaking source code compatibility. This is
        also done for all Qt APIs.</tspan>
    </text>
  </g>
</svg>
