<?xml version="1.0" encoding="UTF-8" standalone="no"?>
<svg
  viewBox="-410 -30 540 540"
  version="1.1"
  xmlns="http://www.w3.org/2000/svg"
  xmlns:svg="http://www.w3.org/2000/svg">
  <defs>
    <path id="raute"
      fill="#cfe7f5"
      stroke="black"
      stroke-width="1px"
      d="m 0 -40 L 80 0 L 0 40 L -80 0 z" />
    <path id="lozenge"
      fill="#cfe7f5"
      stroke="black"
      stroke-width="1px"
      d="M -60,-20
         h 120
         a 20,20 0 0 1 20,20
         v 0
         a 20,20 0 0 1 -20,20
         h -120
         a 20,20 0 0 1 -20,-20
         v 0
         a 20,20 0 0 1 20,-20
         Z"/>
    <path id="lozenge_small"
      fill="#cfe7f5"
      stroke="black"
      stroke-width="1px"
      d="M -40,-20
         h 80
         a 20,20 0 0 1 20,20
         v 0
         a 20,20 0 0 1 -20,20
         h -80
         a 20,20 0 0 1 -20,-20
         v 0
         a 20,20 0 0 1 20,-20
         Z"/>
    <marker
      id="triangle"
      viewBox="0 0 10 10"
      refX="1"
      refY="5"
      markerUnits="strokeWidth"
      markerWidth="10"
      markerHeight="10"
      orient="auto">
      <path d="M 0 0 L 10 5 L 0 10 z" fill="black" />
    </marker>
  </defs>

  <g id="start" transform="translate(-160, 0)">
    <use href="#lozenge_small" />
    <text
      font-size="12" fill="black"
      text-anchor="middle" dominant-baseline="middle"
      transform="translate(0, -6)">
      <tspan x="0" dy="0em">String class for</tspan>
      <tspan x="0" dy="1.2em">calling Qt functions</tspan>
    </text>
  </g>

  <g id="param_or_return" transform="translate(-160, 100)">
   <use href="#raute" />
   <text
      font-size="12" fill="black"
      text-anchor="middle" dominant-baseline="middle"
      transform="translate(0, -12)">
      <tspan x="0" dy="0em">Is your string</tspan>
      <tspan x="0" dy="1.2em">known at compile time</tspan>
      <tspan x="0" dy="1.2em">(a literal)?</tspan>
  </text>
  </g>

  <g id="ref_or_perm" transform="translate(-320, 200)">
    <use href="#raute" />
     <text
       font-size="12" fill="black"
       text-anchor="middle" dominant-baseline="middle"
       transform="translate(0, -6)">
       <tspan x="0" dy="0em">Is the parameter a</tspan>
       <tspan x="0" dy="1.2em">QString or a *View?</tspan>
  </text>
  </g>


  <g id="ref_or_perm" transform="translate(-320, 330)">
    <use href="#raute" />
     <text
       font-size="12" fill="black"
       text-anchor="middle" dominant-baseline="middle"
       transform="translate(0, -6)">
       <tspan x="0" dy="0em">Do you know the</tspan>
       <tspan x="0" dy="1.2em">preferred encoding?</tspan>
  </text>
  </g>


  <g id="make_copy" transform="translate(-100, 330)">
    <use href="#raute" />
    <text
      font-size="12" fill="black"
      text-anchor="middle" dominant-baseline="middle"
      transform="translate(0, -6)">
      <tspan x="0" dy="0em">Is your string</tspan>
      <tspan x="0" dy="1.2em">ASCII?</tspan>
    </text>
  </g>

  <g transform="translate(40, 150)">
    <use href="#lozenge" />
    <text
      font-size="12" fill="black"
      text-anchor="middle" dominant-baseline="middle"
      transform="translate(0, -4)" >
      <tspan x="0" dy="0em">QString</tspan>
      <tspan font-size="8" x="0" dy="1.4em">or what is already existing</tspan>
    </text>
  </g>

  <g transform="translate(-100, 200)">
    <use href="#lozenge" />
    <text
      font-size="12" fill="black"
      text-anchor="middle" dominant-baseline="middle"
      transform="translate(0, -4)" >
      <tspan x="0" dy="0em">QStringLiteral</tspan>
      <tspan font-size="8" x="0" dy="1.4em">same as u""_s</tspan>
    </text>
  </g>

  <g transform="translate(40, 390)">
    <use href="#lozenge" />
    <text
      font-size="12" fill="black"
      text-anchor="middle" dominant-baseline="middle"
      transform="translate(0, -4)" >
      <tspan x="0" dy="0em">QLatin1StringView</tspan>
      <tspan font-size="8" x="0" dy="1.4em">same as u""_s</tspan>
    </text>
  </g>

  <g transform="translate(-100, 430)">
    <use href="#lozenge" />
    <text
      font-size="12" fill="black"
      text-anchor="middle" dominant-baseline="middle"
      transform="translate(0, -4)" >
      <tspan x="0" dy="0em">QStringView</tspan>
      <tspan font-size="8" x="0" dy="1.4em">create with u""</tspan>
    </text>f
  </g>


  <g transform="translate(-320, 430)">
    <use href="#lozenge" />
    <text
      font-size="12" fill="black"
      text-anchor="middle" dominant-baseline="middle"
      transform="translate(0, -8)" >
      <tspan x="0" dy="0em">Q*StringView</tspan>
      <tspan font-size="8" x="0" dy="1.4em">of the preferred encoding,</tspan>
      <tspan font-size="8" x="0" dy="1.2em">create with u"", u8"" or ""_L1</tspan>
    </text>
  </g>

  <g transform="translate(-160, 20)">
    <path
      fill="none" stroke="black" marker-end="url(#triangle)"
      d="M 0 0 l 0 30" />
  </g>

  <g transform="translate(-240, 100)">
    <path
      fill="none" stroke="black" marker-end="url(#triangle)"
      d="M 0 0 l -80 0 l 0 50" />
    <text x="-40" y="-5"
      font-size="12" fill="black"
      text-anchor="middle" dominant-baseline="auto">
      yes
    </text>
  </g>

  <g transform="translate(-80, 100)">
    <path
      fill="none" stroke="black" marker-end="url(#triangle)"
      d="M 0 0 l 120 0 l 0 20" />
    <text x="60" y="-5"
      font-size="12" fill="black"
      text-anchor="middle" dominant-baseline="auto">
      no
    </text>
  </g>


  <g transform="translate(-240, 200)">
    <path
      fill="none" stroke="black" marker-end="url(#triangle)"
      d="M 0 0 l 50 0 " />
    <text x="25" y="-5"
      font-size="12" fill="black"
      text-anchor="middle" dominant-baseline="auto">
      QString
    </text>
  </g>


  <g transform="translate(-320, 240)">
    <path
      fill="none" stroke="black" marker-end="url(#triangle)"
      d="M 0 0 l 0 40 " />
    <text x="5" y="20"
      font-size="12" fill="black"
      text-anchor="left" dominant-baseline="middle">
      *View
    </text>
  </g>

  <g transform="translate(-240, 330)">
    <path
      fill="none" stroke="black" marker-end="url(#triangle)"
      d="M 0 0 l 50 0" />
    <text x="30" y="-5"
      font-size="12" fill="black"
      text-anchor="middle" dominant-baseline="auto">
      no
    </text>
  </g>

  <g transform="translate(-320, 370)">
    <path
      fill="none" stroke="black" marker-end="url(#triangle)"
      d="M 0 0 l 0 30" />
    <text x="5" y="15"
      font-size="12" fill="black"
      text-anchor="left" dominant-baseline="middle">
      yes
    </text>
  </g>


  <g transform="translate(-20, 330)">
    <path
      fill="none" stroke="black" marker-end="url(#triangle)"
      d="M 0 0 l 60 0 l 0 30" />
    <text x="30" y="-5"
      font-size="12" fill="black"
      text-anchor="middle" dominant-baseline="auto">
      yes
    </text>
  </g>

  <g transform="translate(-100, 370)">
    <path
      fill="none" stroke="black" marker-end="url(#triangle)"
      d="M 0 0 l 0 30" />
    <text x="5" y="15"
      font-size="12" fill="black"
      text-anchor="left" dominant-baseline="middle">
      no
    </text>
  </g>

</svg>
