<?xml version="1.0" encoding="UTF-8" standalone="no"?>
<svg
   width="240"
   height="290"
   version="1.1"
   xmlns="http://www.w3.org/2000/svg"
   xmlns:svg="http://www.w3.org/2000/svg">

<style>
  svg .line-style { stroke: black; fill: none }
  svg .text-style { font: 12px arial; fill: black }
  svg .italic-style { font: 12px arial; fill: black; font-style: italic }
  svg .bold-style { font: 14px arial; fill: black; font-weight: bold }

  svg.dark .line-style { stroke: #f2f2f2; fill: none }
  svg.dark .text-style { font: 12px arial; fill: #f2f2f2 }
  svg.dark .italic-style { font: 12px arial; fill: #f2f2f2; font-style: italic }
  svg.dark .bold-style { font: 14px arial; fill: #f2f2f2; font-weight: bold }

  [data-theme="dark"] svg .line-style { stroke: #f2f2f2; fill: none }
  [data-theme="dark"] svg .text-style { font: 12px arial; fill: #f2f2f2 }
  [data-theme="dark"] svg .italic-style { font: 12px arial; fill: #f2f2f2; font-style: italic }
  [data-theme="dark"] svg .bold-style { font: 14px arial; fill: #f2f2f2; font-weight: bold }

  [data-theme="light"] svg .line-style { stroke: black; fill: none }
  [data-theme="light"] svg .text-style { font: 12px arial; fill: black }
  [data-theme="light"] svg .italic-style { font: 12px arial; fill: black; font-style: italic }
  [data-theme="light"] svg .bold-style { font: 14px arial; fill: black; font-weight: bold }
</style>

<g transform="translate(10,0)">
<text x="75" y="16" font-family="arial" font-size="14px" font-weight="bold"
      class="bold-style">Tree Model</text>

<path d="m 25.5,255.5 v 25" stroke="black" stroke-dasharray="3, 3"
      class="line-style" />
<path d="m 10.5,30.5 h 30 v 30 h -30 z" stroke="black" fill="none"
      stroke-dasharray="5, 5"
      class="line-style"/>

<text x="50" y="49" font-family="arial" font-size="12px" font-style="italic"
      class="italic-style">Root item</text>
<path d="m 25.5,60.5 v 195" stroke="black"
      class="line-style" />
<path d="m 45.5,70.5 h 30 v 30 h -30 z" stroke="black" fill="none"
      class="line-style" />
<path d="m 25.5,85.5 h 20" stroke="black"
      class="line-style" />
<path d="m 60.5,100.5 v 65" stroke="black"
      class="line-style" />
<path d="m 80.5,110.5 h 30 v 30 h -30 z" stroke="black" fill="none"
      class="line-style" />
<path d="m 60,125.5 h 20" stroke="black"
      class="line-style" />
<path d="m 80.5,150.5 h 30 v 30 h -30 z" stroke="black" fill="none"
      class="line-style" />
<path d="m 60,165.5 h 20"
      class="line-style" />
<path d="m 60,165.5 v 25" stroke="black" stroke-dasharray="3, 3"
      class="line-style" />
<path d="m 45.5,200.5 h 30 v 30 h -30 z" stroke="black" fill="none"
      class="line-style" />
<path d="m 25.5,215.5 h 20" stroke="black"
      class="line-style" />
<path d="m 45.5,240.5 h 30 v 30 h -30 z" stroke="black" fill="none"
      class="line-style" />
<path d="m 25.5,255.5 h 20" stroke="black"
      class="line-style" />

<path d="m 75.5,70.5 h 30 v 30 h -30 z" stroke="black" fill="none"
      class="line-style" />
<path d="m 110.5,110.5 h 30 v 30 h -30 z" stroke="black" fill="none"
      class="line-style" />
<path d="m 110.5,150.5 h 30 v 30 h -30 z" stroke="black" fill="none"
      class="line-style" />
<path d="m 75.5,200.5 h 30 v 30 h -30 z" stroke="black" fill="none"
      class="line-style" />
<path d="m 75.5,240.5 h 30 v 30 h -30 z" stroke="black" fill="none"
      class="line-style" />
<path d="m 105.5,70.5 h 30 v 30 h -30 z" stroke="black" fill="none"
      stroke-dasharray="3, 3"
      class="line-style" />
<path d="m 140.5,110.5 h 30 v 30 h -30 z" stroke="black" fill="none"
      stroke-dasharray="3, 3"
      class="line-style" />
<path d="m 140.5,150.5 h 30 v 30 h -30 z" stroke="black" fill="none"
      stroke-dasharray="3, 3"
      class="line-style" />
<path d="m 105.5,200.5 h 30 v 30 h -30 z" stroke="black" fill="none"
      stroke-dasharray="3, 3"
      class="line-style" />
<path d="m 105.5,240.5 h 30 v 30 h -30 z" stroke="black" fill="none"
      stroke-dasharray="3, 3"
      class="line-style"/>

<text x="140" y="89" font-family="arial" font-size="12px"
      class="text-style">row = 0</text>
<text x="175" y="129" font-family="arial" font-size="12px"
      class="text-style">row = 0</text>
<text x="175" y="169" font-family="arial" font-size="12px"
      class="text-style">row = 1</text>
<text x="140" y="219" font-family="arial" font-size="12px"
      class="text-style">row = 1</text>
<text x="140" y="259" font-family="arial" font-size="12px"
      class="text-style">row = 2</text>
</g>
</svg>
